<svg xmlns="http://www.w3.org/2000/svg" xmlns:xlink="http://www.w3.org/1999/xlink" width="501" height="463" version="1.1" viewBox="0 0 501 463"><defs><rect id="a" width="32.695" height="32.718" x="0" y="0" rx="16.348"/><rect id="c" width="32.695" height="32.718" x="0" y="0" rx="16.348"/><rect id="e" width="32.695" height="32.718" x="0" y="0" rx="16.348"/><rect id="g" width="32.695" height="32.718" x="0" y="0" rx="16.348"/><rect id="i" width="32.695" height="32.718" x="0" y="0" rx="16.348"/><rect id="k" width="32.695" height="32.718" x="0" y="0" rx="16.348"/><rect id="m" width="32.695" height="32.718" x="0" y="0" rx="16.348"/></defs><g fill="none" fill-rule="evenodd" stroke="none" stroke-width="1" transform="translate(1 1)"><rect fill="#FFF" width="499" height="429" x="0" y="0" stroke="#DDD" rx="10"/><path d="M37.075 85.953h413.574M37.075 137.558h413.574M37.075 189.162h413.574M37.075 240.766h413.574M37.075 292.371h413.574M37.075 343.975h413.574" stroke="#DDD" stroke-dasharray="2.313" stroke-linecap="square" stroke-width=".5"/><text fill="#999" font-family="-apple-system, BlinkMacSystemFont, Segoe UI, Roboto, Oxygen, Ubuntu, Cantarell, Fira Sans, Droid Sans, Helvetica Neue, sans-serif" font-size="9" font-weight="500" letter-spacing=".675" transform="translate(36.945 66.262)">
                        <tspan x="45.245" y="9">RECIPIENT</tspan>
                    </text><text fill="#999" font-family="-apple-system, BlinkMacSystemFont, Segoe UI, Roboto, Oxygen, Ubuntu, Cantarell, Fira Sans, Droid Sans, Helvetica Neue, sans-serif" font-size="9" font-weight="500" letter-spacing=".675" transform="translate(36.945 66.262)">
                        <tspan x="294.659" y="9">SENDING</tspan>
                    </text><text fill="#999" font-family="-apple-system, BlinkMacSystemFont, Segoe UI, Roboto, Oxygen, Ubuntu, Cantarell, Fira Sans, Droid Sans, Helvetica Neue, sans-serif" font-size="9" font-weight="500" letter-spacing=".675" transform="translate(36.945 66.262)">
                        <tspan x="173.777" y="9">ALLOCATION</tspan>
                    </text><text fill="#999" font-family="-apple-system, BlinkMacSystemFont, Segoe UI, Roboto, Oxygen, Ubuntu, Cantarell, Fira Sans, Droid Sans, Helvetica Neue, sans-serif" font-size="9" font-weight="500" letter-spacing=".675" transform="translate(36.945 66.262)">
                        <tspan x="365.663" y="9">RECEIVED</tspan>
                    </text><text font-family="-apple-system, BlinkMacSystemFont, Segoe UI, Roboto, Oxygen, Ubuntu, Cantarell, Fira Sans, Droid Sans, Helvetica Neue, sans-serif" font-size="9" font-weight="500" letter-spacing=".675" transform="translate(36.945 66.262)">
                        <tspan fill="#262626" x="378.286" y="44.031">0 BLOK </tspan>
                        
                        <tspan fill="#999" x="397.654" y="55.031">0%</tspan>
                    </text><text font-family="-apple-system, BlinkMacSystemFont, Segoe UI, Roboto, Oxygen, Ubuntu, Cantarell, Fira Sans, Droid Sans, Helvetica Neue, sans-serif" font-size="9" font-weight="500" letter-spacing=".675" transform="translate(36.945 66.262)">
                        <tspan fill="#262626" x="275.42" y="44.031">50,000 BLOK </tspan>
                        
                        <tspan fill="#999" x="317.795" y="55.031">10%</tspan>
                    </text><text font-family="-apple-system, BlinkMacSystemFont, Segoe UI, Roboto, Oxygen, Ubuntu, Cantarell, Fira Sans, Droid Sans, Helvetica Neue, sans-serif" font-size="9" font-weight="500" letter-spacing=".675" transform="translate(36.945 66.262)">
                        <tspan fill="#262626" x="211.072" y="44.031">$100</tspan>
                        
                        <tspan fill="#999" x="175.205" y="55.031">ouf of $1000</tspan>
                    </text><text fill="#999" font-family="-apple-system, BlinkMacSystemFont, Segoe UI, Roboto, Oxygen, Ubuntu, Cantarell, Fira Sans, Droid Sans, Helvetica Neue, sans-serif" font-size="9" font-weight="normal" letter-spacing=".675" transform="translate(36.945 66.262)">
                        <tspan x="45.245" y="57.912">james@gmail.com</tspan>
                    </text><text fill="#999" font-family="-apple-system, BlinkMacSystemFont, Segoe UI, Roboto, Oxygen, Ubuntu, Cantarell, Fira Sans, Droid Sans, Helvetica Neue, sans-serif" font-size="9" font-weight="normal" letter-spacing=".675" transform="translate(36.945 66.262)">
                        <tspan x="45.245" y="109.798">ahmed@gmail.com</tspan>
                    </text><text fill="#999" font-family="-apple-system, BlinkMacSystemFont, Segoe UI, Roboto, Oxygen, Ubuntu, Cantarell, Fira Sans, Droid Sans, Helvetica Neue, sans-serif" font-size="9" font-weight="normal" letter-spacing=".675" transform="translate(36.945 66.262)">
                        <tspan x="45.245" y="160.692">alice@gmail.com</tspan>
                    </text><text fill="#999" font-family="-apple-system, BlinkMacSystemFont, Segoe UI, Roboto, Oxygen, Ubuntu, Cantarell, Fira Sans, Droid Sans, Helvetica Neue, sans-serif" font-size="9" font-weight="normal" letter-spacing=".675" transform="translate(36.945 66.262)">
                        <tspan x="45.245" y="212.578">mike@gmail.com</tspan>
                    </text><text fill="#999" font-family="-apple-system, BlinkMacSystemFont, Segoe UI, Roboto, Oxygen, Ubuntu, Cantarell, Fira Sans, Droid Sans, Helvetica Neue, sans-serif" font-size="9" font-weight="normal" letter-spacing=".675" transform="translate(36.945 66.262)">
                        <tspan x="45.245" y="264.134">nadia@gmail.com</tspan>
                    </text><text fill="#999" font-family="-apple-system, BlinkMacSystemFont, Segoe UI, Roboto, Oxygen, Ubuntu, Cantarell, Fira Sans, Droid Sans, Helvetica Neue, sans-serif" font-size="9" font-weight="normal" letter-spacing=".675" transform="translate(36.945 66.262)">
                        <tspan x="45.245" y="316.02">jamal@gmail.com</tspan>
                    </text><text font-family="-apple-system, BlinkMacSystemFont, Segoe UI, Roboto, Oxygen, Ubuntu, Cantarell, Fira Sans, Droid Sans, Helvetica Neue, sans-serif" font-size="9" font-weight="500" letter-spacing=".675" transform="translate(36.945 66.262)">
                        <tspan fill="#262626" x="378.4" y="95.256">0 BLOK</tspan>
                        <tspan fill="#999" x="397.769" y="106.256">0%</tspan>
                    </text><text font-family="-apple-system, BlinkMacSystemFont, Segoe UI, Roboto, Oxygen, Ubuntu, Cantarell, Fira Sans, Droid Sans, Helvetica Neue, sans-serif" font-size="9" font-weight="500" letter-spacing=".675" transform="translate(36.945 66.262)">
                        <tspan fill="#262626" x="277.395" y="95.256">37,500 BLOK</tspan>
                        <tspan fill="#999" x="318.382" y="106.256">10%</tspan>
                    </text><text font-family="-apple-system, BlinkMacSystemFont, Segoe UI, Roboto, Oxygen, Ubuntu, Cantarell, Fira Sans, Droid Sans, Helvetica Neue, sans-serif" font-size="9" font-weight="500" letter-spacing=".675" transform="translate(36.945 66.262)">
                        <tspan fill="#262626" x="216.774" y="95.256">$75</tspan>
                        <tspan fill="#999" x="180.92" y="106.256">out of $750</tspan>
                    </text><text font-family="-apple-system, BlinkMacSystemFont, Segoe UI, Roboto, Oxygen, Ubuntu, Cantarell, Fira Sans, Droid Sans, Helvetica Neue, sans-serif" font-size="9" font-weight="500" letter-spacing=".675" transform="translate(36.945 66.262)">
                        <tspan fill="#262626" x="378.4" y="147.142">0 BLOK</tspan>
                        
                        <tspan fill="#999" x="397.769" y="158.142">0%</tspan>
                    </text><text font-family="-apple-system, BlinkMacSystemFont, Segoe UI, Roboto, Oxygen, Ubuntu, Cantarell, Fira Sans, Droid Sans, Helvetica Neue, sans-serif" font-size="9" font-weight="500" letter-spacing=".675" transform="translate(36.945 66.262)">
                        <tspan fill="#262626" x="275.831" y="147.142">25,000 BLOK</tspan>
                        
                        <tspan fill="#999" x="317.947" y="158.142">10%</tspan>
                    </text><text font-family="-apple-system, BlinkMacSystemFont, Segoe UI, Roboto, Oxygen, Ubuntu, Cantarell, Fira Sans, Droid Sans, Helvetica Neue, sans-serif" font-size="9" font-weight="500" letter-spacing=".675" transform="translate(36.945 66.262)">
                        <tspan fill="#262626" x="216.064" y="147.142">$50</tspan>
                        
                        <tspan fill="#999" x="180.196" y="158.142">ouf of $500</tspan>
                    </text><text font-family="-apple-system, BlinkMacSystemFont, Segoe UI, Roboto, Oxygen, Ubuntu, Cantarell, Fira Sans, Droid Sans, Helvetica Neue, sans-serif" font-size="9" font-weight="500" letter-spacing=".675" transform="translate(36.945 66.262)">
                        <tspan fill="#262626" x="378.4" y="198.698">0 BLOK</tspan>
                        
                        <tspan fill="#999" x="397.769" y="209.698">0%</tspan>
                    </text><text font-family="-apple-system, BlinkMacSystemFont, Segoe UI, Roboto, Oxygen, Ubuntu, Cantarell, Fira Sans, Droid Sans, Helvetica Neue, sans-serif" font-size="9" font-weight="500" letter-spacing=".675" transform="translate(36.945 66.262)">
                        <tspan fill="#262626" x="275.831" y="198.698">25,000 BLOK</tspan>
                        
                        <tspan fill="#999" x="317.947" y="209.698">10%</tspan>
                    </text><text font-family="-apple-system, BlinkMacSystemFont, Segoe UI, Roboto, Oxygen, Ubuntu, Cantarell, Fira Sans, Droid Sans, Helvetica Neue, sans-serif" font-size="9" font-weight="500" letter-spacing=".675" transform="translate(36.945 66.262)">
                        <tspan fill="#262626" x="216.064" y="198.698">$50</tspan>
                        
                        <tspan fill="#999" x="180.21" y="209.698">out of $500</tspan>
                    </text><text font-family="-apple-system, BlinkMacSystemFont, Segoe UI, Roboto, Oxygen, Ubuntu, Cantarell, Fira Sans, Droid Sans, Helvetica Neue, sans-serif" font-size="9" font-weight="500" letter-spacing=".675" transform="translate(36.945 66.262)">
                        <tspan fill="#262626" x="378.4" y="252.236">0 BLOK</tspan>
                        
                        <tspan fill="#999" x="397.769" y="263.236">0%</tspan>
                    </text><text font-family="-apple-system, BlinkMacSystemFont, Segoe UI, Roboto, Oxygen, Ubuntu, Cantarell, Fira Sans, Droid Sans, Helvetica Neue, sans-serif" font-size="9" font-weight="500" letter-spacing=".675" transform="translate(36.945 66.262)">
                        <tspan fill="#262626" x="277.681" y="252.236">12,500 BLOK</tspan>
                        
                        <tspan fill="#999" x="318.382" y="263.236">10%</tspan>
                    </text><text font-family="-apple-system, BlinkMacSystemFont, Segoe UI, Roboto, Oxygen, Ubuntu, Cantarell, Fira Sans, Droid Sans, Helvetica Neue, sans-serif" font-size="9" font-weight="500" letter-spacing=".675" transform="translate(36.945 66.262)">
                        <tspan fill="#262626" x="216.537" y="252.236">$25</tspan>
                        
                        <tspan fill="#999" x="180.683" y="263.236">out of $250</tspan>
                    </text><text font-family="-apple-system, BlinkMacSystemFont, Segoe UI, Roboto, Oxygen, Ubuntu, Cantarell, Fira Sans, Droid Sans, Helvetica Neue, sans-serif" font-size="9" font-weight="500" letter-spacing=".675" transform="translate(36.945 66.262)">
                        <tspan fill="#262626" x="378.4" y="301.809">0 BLOK</tspan>
                        
                        <tspan fill="#999" x="397.769" y="312.809">0%</tspan>
                    </text><text font-family="-apple-system, BlinkMacSystemFont, Segoe UI, Roboto, Oxygen, Ubuntu, Cantarell, Fira Sans, Droid Sans, Helvetica Neue, sans-serif" font-size="9" font-weight="500" letter-spacing=".675" transform="translate(36.945 66.262)">
                        <tspan fill="#262626" x="277.681" y="301.809">12,500 BLOK</tspan>
                        
                        <tspan fill="#999" x="318.382" y="312.809">10%</tspan>
                    </text><text font-family="-apple-system, BlinkMacSystemFont, Segoe UI, Roboto, Oxygen, Ubuntu, Cantarell, Fira Sans, Droid Sans, Helvetica Neue, sans-serif" font-size="9" font-weight="500" letter-spacing=".675" transform="translate(36.945 66.262)">
                        <tspan fill="#262626" x="216.537" y="301.809">$25</tspan>
                        
                        <tspan fill="#999" x="180.683" y="312.809">out of $250</tspan>
                    </text><g transform="translate(82 98)"><rect fill="#F6F8FA" width="79" height="17" x="0" y="0" rx="2.479"/><text fill="#00A3FF" font-family="-apple-system, BlinkMacSystemFont, Segoe UI, Roboto, Oxygen, Ubuntu, Cantarell, Fira Sans, Droid Sans, Helvetica Neue, sans-serif" font-size="9" font-weight="400">
                            <tspan x="10" y="11">0x34ea…d029</tspan>
                        </text></g><g transform="translate(82 149)"><rect fill="#F6F8FA" width="79" height="17" x="0" y="0" rx="2.479"/><text fill="#00A3FF" font-family="-apple-system, BlinkMacSystemFont, Segoe UI, Roboto, Oxygen, Ubuntu, Cantarell, Fira Sans, Droid Sans, Helvetica Neue, sans-serif" font-size="9" font-weight="400">
                            <tspan x="11" y="12">0x224e…72ed</tspan>
                        </text></g><g transform="translate(82 200)"><rect fill="#F6F8FA" width="79" height="17" x="0" y="0" rx="2.479"/><text fill="#00A3FF" font-family="-apple-system, BlinkMacSystemFont, Segoe UI, Roboto, Oxygen, Ubuntu, Cantarell, Fira Sans, Droid Sans, Helvetica Neue, sans-serif" font-size="9" font-weight="400">
                            <tspan x="11" y="12">0x9443...e401</tspan>
                        </text></g><g transform="translate(82 252)"><rect fill="#F6F8FA" width="79" height="17" x="0" y="0" rx="2.479"/><text fill="#00A3FF" font-family="-apple-system, BlinkMacSystemFont, Segoe UI, Roboto, Oxygen, Ubuntu, Cantarell, Fira Sans, Droid Sans, Helvetica Neue, sans-serif" font-size="9" font-weight="400">
                            <tspan x="11" y="12">0x810e...e031</tspan>
                        </text></g><g transform="translate(82 304)"><rect fill="#F6F8FA" width="79" height="17" x="0" y="0" rx="2.479"/><text fill="#00A3FF" font-family="-apple-system, BlinkMacSystemFont, Segoe UI, Roboto, Oxygen, Ubuntu, Cantarell, Fira Sans, Droid Sans, Helvetica Neue, sans-serif" font-size="9" font-weight="400">
                            <tspan x="11" y="12">0xce1b...2bdc</tspan>
                        </text></g><g transform="translate(82 356)"><rect fill="#F6F8FA" width="79" height="17" x="0" y="0" rx="2.479"/><text fill="#00A3FF" font-family="-apple-system, BlinkMacSystemFont, Segoe UI, Roboto, Oxygen, Ubuntu, Cantarell, Fira Sans, Droid Sans, Helvetica Neue, sans-serif" font-size="9" font-weight="400">
                            <tspan x="11" y="12">0x74fe...8280</tspan>
                        </text></g><g transform="translate(36.945 95.353)"><mask fill="#fff" id="b"><use xlink:href="#a"/></mask><g mask="url(#b)"><path d="M0-.063h32.725v32.662H0z" fill="#73B06F" fill-rule="nonzero"/><path d="M21.49 30.276 7.025 18.585A7.05 7.05 0 0 1 5.982 8.66l11.71-14.433a7.05 7.05 0 0 1 9.907-1.041l14.466 11.69a7.05 7.05 0 0 1 1.042 9.926l-11.71 14.433a7.05 7.05 0 0 1-9.906 1.041Z" fill="#0F20E9" fill-rule="nonzero"/><g fill="none" fill-rule="evenodd" stroke-width="1" transform="rotate(9 -43.377 91.875)"><path d="M4.545 4.536c1.818.908 3.636.908 5.454 0" stroke="#FFF" stroke-linecap="round" stroke-width="1.175"/><rect fill="#FFF" fill-rule="nonzero" width="1.364" height="1.815" x="0" y="0" rx=".682"/><rect fill="#FFF" fill-rule="nonzero" width="1.364" height="1.815" x="12.726" y="0" rx=".682"/></g></g></g><g transform="translate(36.945 95.353)"><mask fill="#fff" id="d"><use xlink:href="#c"/></mask><g mask="url(#d)"><path d="M-.131.198h32.628v32.651H-.131z" fill="#73B06F" fill-rule="nonzero"/><path d="M6.594 3.316c7.284-5.296 17.483-3.685 22.78 3.6l.01.015c5.295 7.293 3.679 17.5-3.612 22.8-7.284 5.296-17.484 3.684-22.779-3.6l-.01-.015c-5.296-7.294-3.68-17.5 3.61-22.8Z" fill="#0F20E9" fill-rule="nonzero"/><g fill="none" fill-rule="evenodd" stroke-width="1" transform="rotate(-4 142.6 -67.719)"><path d="M4.532 4.535c1.812.907 3.625.907 5.438 0" stroke="#FFF" stroke-linecap="round" stroke-width="1.175"/><rect fill="#FFF" fill-rule="nonzero" width="1.36" height="1.814" x="0" y="0" rx=".68"/><rect fill="#FFF" fill-rule="nonzero" width="1.36" height="1.814" x="12.689" y="0" rx=".68"/></g></g></g><g transform="translate(36.945 353.462)"><mask fill="#fff" id="f"><use xlink:href="#e"/></mask><g fill-rule="nonzero" mask="url(#f)"><path d="M0 0h32.703v32.816H0z" fill="#0F20E9"/><path d="M11.382 6.16 36.466 4.4a7.045 7.045 0 0 1 7.526 6.537s0 .002-.003.003l1.758 25.217a7.06 7.06 0 0 1-6.543 7.527l-25.083 1.76a7.045 7.045 0 0 1-7.526-6.536c0-.002 0-.003.003-.004L4.84 13.687a7.06 7.06 0 0 1 6.543-7.526Z" fill="#EDD75A"/><g fill="#000" transform="rotate(6 -118.188 157.824)"><path d="M0 6.38C0 8.27 2.034 9.8 4.542 9.8c2.509 0 4.542-1.531 4.542-3.42"/><rect width="1.363" height="1.823" x="0" y="0" rx=".681"/><rect width="1.363" height="1.823" x="7.267" y="0" rx=".681"/></g></g></g><g transform="translate(36.945 301.575)"><mask fill="#fff" id="h"><use xlink:href="#g"/></mask><g fill-rule="nonzero" mask="url(#h)"><path d="M-.031 0h32.727v32.747H-.031z" fill="#73B06F"/><path d="M9.228 40.732C.3 39.318-5.79 30.935-4.376 22.008l.003-.02c1.413-8.924 9.792-15.013 18.716-13.6h.004c8.926 1.414 15.017 9.797 13.604 18.724l-.003.019c-1.414 8.925-9.793 15.014-18.718 13.601h-.002Z" fill="#0F20E9"/><g fill="#FFF" stroke-width="1" transform="rotate(-9 116.442 -16.627)"><path d="M2.727 4.548c0 1.884 2.035 3.411 4.546 3.411 2.51 0 4.545-1.527 4.545-3.41"/><rect width="1.364" height="1.819" x="0" y="0" rx=".682"/><rect width="1.364" height="1.819" x="12.727" y="0" rx=".682"/></g></g></g><g transform="translate(36.945 250.02)"><mask fill="#fff" id="j"><use xlink:href="#i"/></mask><g mask="url(#j)"><path d="M.024.047h32.8V32.87H.024z" fill="#FFAD08" fill-rule="nonzero"/><path d="m25.804 24.908-.005.006C19.81 32.869 8.502 34.462.547 28.47l-.01-.008c-7.959-6-9.548-17.316-3.552-25.278l.004-.005C2.979-4.777 14.285-6.37 22.24-.38l.01.008c7.959 6 9.548 17.316 3.552 25.278Z" fill="#73B06F" fill-rule="nonzero"/><g fill="none" fill-rule="evenodd" stroke-width="1" transform="rotate(-7 82.674 -29.21)"><path d="M2.733 5.47c1.823.912 3.645.912 5.467 0" stroke="#000" stroke-linecap="round" stroke-width="1.175"/><rect fill="#000" fill-rule="nonzero" width="1.367" height="1.824" x="0" y="0" rx=".683"/><rect fill="#000" fill-rule="nonzero" width="1.367" height="1.824" x="9.111" y="0" rx=".683"/></g></g></g><g transform="translate(36.945 198.134)"><mask fill="#fff" id="l"><use xlink:href="#k"/></mask><g mask="url(#l)"><path d="M.071-.173h32.713v32.736H.071z" fill="#EDD75A" fill-rule="nonzero"/><path d="m41.1 21.454-14.928 16.02a7.043 7.043 0 0 1-9.96.355c-.002-.002-.004-.003-.002-.007L.202 22.883a7.065 7.065 0 0 1-.348-9.968l14.928-16.02a7.043 7.043 0 0 1 9.962-.354s.002.002 0 .007l16.008 14.937a7.065 7.065 0 0 1 .348 9.969Z" fill="#0C8F8F" fill-rule="nonzero"/><g fill="none" fill-rule="evenodd" stroke-width="1" transform="rotate(-3 183.313 -244.844)"><path d="M3.635 5.456c1.817.91 3.635.91 5.452 0" stroke="#FFF" stroke-linecap="round" stroke-width="1.175"/><rect fill="#FFF" fill-rule="nonzero" width="1.363" height="1.819" x="0" y="0" rx=".682"/><rect fill="#FFF" fill-rule="nonzero" width="1.363" height="1.819" x="10.904" y="0" rx=".682"/></g></g></g><g transform="translate(36.945 147.239)"><mask fill="#fff" id="n"><use xlink:href="#m"/></mask><g fill-rule="nonzero" mask="url(#n)"><path d="M-.098-.098h32.72v32.743H-.098z" fill="#0F20E9"/><path d="M39.417 17.986 32.742 35.39a7.045 7.045 0 0 1-9.106 4.059s-.001-.001 0-.005L6.25 32.767a7.06 7.06 0 0 1-4.056-9.111L8.87 6.252a7.045 7.045 0 0 1 9.105-4.058s.002.001.002.004L35.36 8.875a7.06 7.06 0 0 1 4.056 9.111Z" fill="#EDD75A"/><g fill="#000" stroke-width="1" transform="rotate(-1 893.846 -1024.536)"><path d="M0 4.548c0 1.883 2.035 3.41 4.544 3.41 2.51 0 4.545-1.527 4.545-3.41"/><rect width="1.363" height="1.819" x="0" y="0" rx=".682"/><rect width="1.363" height="1.819" x="7.271" y="0" rx=".682"/></g></g></g><rect fill="#0F20E9" width="344" height="53" x="89" y="409" rx="10"/><g fill="#FFF"><text font-family="-apple-system, BlinkMacSystemFont, Segoe UI, Roboto, Oxygen, Ubuntu, Cantarell, Fira Sans, Droid Sans, Helvetica Neue, sans-serif" font-size="18" font-weight="normal" transform="translate(185 425)">
                        <tspan x="0" y="17">Send distribution</tspan>
                    </text><path d="M337.671 429.139a.802.802 0 0 0-.845-.035l-15.423 8.765a.797.797 0 0 0 .086 1.427l5.095 2.138v3.768a.8.8 0 0 0 .415.7.77.77 0 0 0 .352.098c.15 0 .3-.043.432-.127l3.696-2.372 3.276 1.374a.8.8 0 0 0 1.098-.617l2.127-14.344a.731.731 0 0 0-.309-.775Zm-4.397 3.819-6.218 6.936-3.456-1.441 9.674-5.495Zm-5.124 10.784v-1.639l1.544.648-1.544.991Zm6.305-.734-5.87-2.463 7.465-8.284-1.595 10.747Z" fill-rule="nonzero"/></g><text fill="#0F20E9" font-family="-apple-system, BlinkMacSystemFont, Segoe UI, Roboto, Oxygen, Ubuntu, Cantarell, Fira Sans, Droid Sans, Helvetica Neue, sans-serif" font-size="18" font-weight="bold">
                    <tspan x="31" y="41">Distribute tokens</tspan>
                </text></g></svg>