<svg xmlns="http://www.w3.org/2000/svg" width="549" height="492" version="1.1" viewBox="0 0 549 492"><g fill="none" fill-rule="evenodd" stroke="none" stroke-width="1" transform="translate(1 1)"><rect fill="#FFF" width="499" height="429" x="0" y="0" stroke="#DDD" rx="10"/><g transform="translate(31 59)"><rect fill="#FFF" width="121" height="19" x="0" y="0" stroke="#E5E5E5" stroke-width=".75" rx="5.625"/><text fill="#909090" font-family="-apple-system, BlinkMacSystemFont, Segoe UI, Roboto, Oxygen, Ubuntu, Cantarell, Fira Sans, Droid Sans, Helvetica Neue, sans-serif" font-size="9" font-weight="400">
                        <tspan x="21.74" y="13">50% Seed ($0,001)</tspan>
                    </text></g><g transform="translate(158 59)"><rect fill="#FFF" width="121" height="19" x="0" y="0" stroke="#E5E5E5" stroke-width=".75" rx="5.625"/><text fill="#909090" font-family="-apple-system, BlinkMacSystemFont, Segoe UI, Roboto, Oxygen, Ubuntu, Cantarell, Fira Sans, Droid Sans, Helvetica Neue, sans-serif" font-size="9" font-weight="400">
                        <tspan x="14.695" y="13">50% Private 1 ($0,003)</tspan>
                    </text></g><text fill="#0F20E9" font-family="-apple-system, BlinkMacSystemFont, Segoe UI, Roboto, Oxygen, Ubuntu, Cantarell, Fira Sans, Droid Sans, Helvetica Neue, sans-serif" font-size="18" font-weight="bold">
                    <tspan x="31" y="41">Showing pools for Bloktopia</tspan>
                </text><g transform="translate(31 92)"><rect fill="#FFF" width="182" height="146" x=".5" y=".5" stroke="#EEE" rx="5.363"/><path d="M177.637.268c1.407 0 2.68.57 3.602 1.493a5.08 5.08 0 0 1 1.493 3.602v37.869H.268V5.363c0-1.407.57-2.68 1.493-3.602A5.08 5.08 0 0 1 5.363.268Z" fill="#202938" stroke="#979797" stroke-width=".536"/><text fill="#FFF" font-family="-apple-system, BlinkMacSystemFont, Segoe UI, Roboto, Oxygen, Ubuntu, Cantarell, Fira Sans, Droid Sans, Helvetica Neue, sans-serif" font-size="12.872" font-weight="bold">
                        <tspan x="73" y="26">Tier 1</tspan>
                    </text><rect fill="#E5E5E5" width="49.134" height="13.5" x="67.184" y="52.5" rx="4.023"/><text fill="#909090" font-family="-apple-system, BlinkMacSystemFont, Segoe UI, Roboto, Oxygen, Ubuntu, Cantarell, Fira Sans, Droid Sans, Helvetica Neue, sans-serif" font-size="6.436" font-weight="400">
                        <tspan x="78.337" y="62">Min </tspan>
                        <tspan x="89.971" y="62" font-family="-apple-system, BlinkMacSystemFont, Segoe UI, Roboto, Oxygen, Ubuntu, Cantarell, Fira Sans, Droid Sans, Helvetica Neue, sans-serif" font-weight="bold">$100</tspan>
                    </text><rect fill="#E5E5E5" width="49.134" height="13.5" x="120.329" y="52.5" rx="4.023"/><text fill="#909090" font-family="-apple-system, BlinkMacSystemFont, Segoe UI, Roboto, Oxygen, Ubuntu, Cantarell, Fira Sans, Droid Sans, Helvetica Neue, sans-serif" font-size="6.436" font-weight="400">
                        <tspan x="130.441" y="62">Max </tspan>
                        <tspan x="143.564" y="62" font-family="-apple-system, BlinkMacSystemFont, Segoe UI, Roboto, Oxygen, Ubuntu, Cantarell, Fira Sans, Droid Sans, Helvetica Neue, sans-serif" font-weight="bold">$250</tspan>
                    </text><rect fill="#E5E5E5" width="49.134" height="13.5" x="14.038" y="52.5" rx="4.023"/><text fill="#909090" font-family="-apple-system, BlinkMacSystemFont, Segoe UI, Roboto, Oxygen, Ubuntu, Cantarell, Fira Sans, Droid Sans, Helvetica Neue, sans-serif" font-size="6.436" font-weight="400">
                        <tspan x="26.721" y="62">Fee </tspan>
                        <tspan x="38.151" y="62" font-family="-apple-system, BlinkMacSystemFont, Segoe UI, Roboto, Oxygen, Ubuntu, Cantarell, Fira Sans, Droid Sans, Helvetica Neue, sans-serif" font-weight="bold">15%</tspan>
                    </text><rect fill="#F7F5FF" width="155.425" height="27" x="14.038" y="98.5" rx="8.045"/><text fill="#0F20E9" font-family="-apple-system, BlinkMacSystemFont, Segoe UI, Roboto, Oxygen, Ubuntu, Cantarell, Fira Sans, Droid Sans, Helvetica Neue, sans-serif" font-size="8.581" font-weight="normal">
                        <tspan x="24.567" y="115">Currently raised</tspan>
                    </text><text fill="#0F20E9" font-family="-apple-system, BlinkMacSystemFont, Segoe UI, Roboto, Oxygen, Ubuntu, Cantarell, Fira Sans, Droid Sans, Helvetica Neue, sans-serif" font-size="8.581" font-weight="bold">
                        <tspan x="123.563" y="115">$25,000</tspan>
                    </text><text font-family="-apple-system, BlinkMacSystemFont, Segoe UI, Roboto, Oxygen, Ubuntu, Cantarell, Fira Sans, Droid Sans, Helvetica Neue, sans-serif" font-size="8.581" font-weight="normal">
                        <tspan fill="#202938" x="15.041" y="84.5">Pool cap   </tspan>
                        <tspan fill="#E5E5E5" x="51.009" y="84.5">……………………………..….…..</tspan>
                    </text><text fill="#202938" font-family="-apple-system, BlinkMacSystemFont, Segoe UI, Roboto, Oxygen, Ubuntu, Cantarell, Fira Sans, Droid Sans, Helvetica Neue, sans-serif" font-size="8.581" font-weight="normal">
                        <tspan x="132.273" y="84.5">$100,000</tspan>
                    </text></g><g transform="translate(230 92)"><rect fill="#FFF" width="182" height="146" x=".5" y=".5" stroke="#EEE" rx="5.363"/><path d="M177.637.268c1.407 0 2.68.57 3.602 1.493a5.08 5.08 0 0 1 1.493 3.602v37.869H.268V5.363c0-1.407.57-2.68 1.493-3.602A5.08 5.08 0 0 1 5.363.268Z" fill="#202938" stroke="#979797" stroke-width=".536"/><text fill="#FFF" font-family="-apple-system, BlinkMacSystemFont, Segoe UI, Roboto, Oxygen, Ubuntu, Cantarell, Fira Sans, Droid Sans, Helvetica Neue, sans-serif" font-size="12.872" font-weight="bold">
                        <tspan x="73" y="26">Tier 2</tspan>
                    </text><rect fill="#E5E5E5" width="49.134" height="13.5" x="67.184" y="52.5" rx="4.023"/><text fill="#909090" font-family="-apple-system, BlinkMacSystemFont, Segoe UI, Roboto, Oxygen, Ubuntu, Cantarell, Fira Sans, Droid Sans, Helvetica Neue, sans-serif" font-size="6.436" font-weight="400">
                        <tspan x="78.337" y="62">Min </tspan>
                        <tspan x="89.971" y="62" font-family="-apple-system, BlinkMacSystemFont, Segoe UI, Roboto, Oxygen, Ubuntu, Cantarell, Fira Sans, Droid Sans, Helvetica Neue, sans-serif" font-weight="bold">$100</tspan>
                    </text><rect fill="#E5E5E5" width="49.134" height="13.5" x="120.329" y="52.5" rx="4.023"/><text fill="#909090" font-family="-apple-system, BlinkMacSystemFont, Segoe UI, Roboto, Oxygen, Ubuntu, Cantarell, Fira Sans, Droid Sans, Helvetica Neue, sans-serif" font-size="6.436" font-weight="400">
                        <tspan x="130.271" y="62">Max </tspan>
                        <tspan x="143.395" y="62" font-family="-apple-system, BlinkMacSystemFont, Segoe UI, Roboto, Oxygen, Ubuntu, Cantarell, Fira Sans, Droid Sans, Helvetica Neue, sans-serif" font-weight="bold">$500</tspan>
                    </text><rect fill="#E5E5E5" width="49.134" height="13.5" x="14.038" y="52.5" rx="4.023"/><text fill="#909090" font-family="-apple-system, BlinkMacSystemFont, Segoe UI, Roboto, Oxygen, Ubuntu, Cantarell, Fira Sans, Droid Sans, Helvetica Neue, sans-serif" font-size="6.436" font-weight="400">
                        <tspan x="26.622" y="62">Fee </tspan>
                        <tspan x="38.052" y="62" font-family="-apple-system, BlinkMacSystemFont, Segoe UI, Roboto, Oxygen, Ubuntu, Cantarell, Fira Sans, Droid Sans, Helvetica Neue, sans-serif" font-weight="bold">10%</tspan>
                    </text><rect fill="#F7F5FF" width="155.425" height="27" x="14.038" y="98.5" rx="8.045"/><text fill="#0F20E9" font-family="-apple-system, BlinkMacSystemFont, Segoe UI, Roboto, Oxygen, Ubuntu, Cantarell, Fira Sans, Droid Sans, Helvetica Neue, sans-serif" font-size="8.581" font-weight="normal">
                        <tspan x="24.567" y="115">Currently raised</tspan>
                    </text><text fill="#0F20E9" font-family="-apple-system, BlinkMacSystemFont, Segoe UI, Roboto, Oxygen, Ubuntu, Cantarell, Fira Sans, Droid Sans, Helvetica Neue, sans-serif" font-size="8.581" font-weight="bold">
                        <tspan x="123.278" y="115">$50,000</tspan>
                    </text><text font-family="-apple-system, BlinkMacSystemFont, Segoe UI, Roboto, Oxygen, Ubuntu, Cantarell, Fira Sans, Droid Sans, Helvetica Neue, sans-serif" font-size="8.581" font-weight="normal">
                        <tspan fill="#202938" x="15.041" y="84.5">Pool cap   </tspan>
                        <tspan fill="#E5E5E5" x="51.009" y="84.5">………………………….……..…..</tspan>
                    </text><text fill="#202938" font-family="-apple-system, BlinkMacSystemFont, Segoe UI, Roboto, Oxygen, Ubuntu, Cantarell, Fira Sans, Droid Sans, Helvetica Neue, sans-serif" font-size="8.581" font-weight="normal">
                        <tspan x="132.273" y="84.5">$100,000</tspan>
                    </text></g><g transform="translate(31 255)"><rect fill="#FFF" width="182" height="146" x=".5" y=".5" stroke="#EEE" rx="5.363"/><path d="M177.637.268c1.407 0 2.68.57 3.602 1.493a5.08 5.08 0 0 1 1.493 3.602v37.869H.268V5.363c0-1.407.57-2.68 1.493-3.602A5.08 5.08 0 0 1 5.363.268Z" fill="#202938" stroke="#979797" stroke-width=".536"/><text fill="#FFF" font-family="-apple-system, BlinkMacSystemFont, Segoe UI, Roboto, Oxygen, Ubuntu, Cantarell, Fira Sans, Droid Sans, Helvetica Neue, sans-serif" font-size="12.872" font-weight="bold">
                        <tspan x="73" y="26">Tier 3</tspan>
                    </text><rect fill="#E5E5E5" width="49.134" height="13.5" x="67.184" y="52.5" rx="4.023"/><text fill="#909090" font-family="-apple-system, BlinkMacSystemFont, Segoe UI, Roboto, Oxygen, Ubuntu, Cantarell, Fira Sans, Droid Sans, Helvetica Neue, sans-serif" font-size="6.436" font-weight="400">
                        <tspan x="78.337" y="62">Min </tspan>
                        <tspan x="89.971" y="62" font-family="-apple-system, BlinkMacSystemFont, Segoe UI, Roboto, Oxygen, Ubuntu, Cantarell, Fira Sans, Droid Sans, Helvetica Neue, sans-serif" font-weight="bold">$100</tspan>
                    </text><rect fill="#E5E5E5" width="49.134" height="13.5" x="120.329" y="52.5" rx="4.023"/><text fill="#909090" font-family="-apple-system, BlinkMacSystemFont, Segoe UI, Roboto, Oxygen, Ubuntu, Cantarell, Fira Sans, Droid Sans, Helvetica Neue, sans-serif" font-size="6.436" font-weight="400">
                        <tspan x="130.54" y="62">Max </tspan>
                        <tspan x="143.663" y="62" font-family="-apple-system, BlinkMacSystemFont, Segoe UI, Roboto, Oxygen, Ubuntu, Cantarell, Fira Sans, Droid Sans, Helvetica Neue, sans-serif" font-weight="bold">$750</tspan>
                    </text><rect fill="#E5E5E5" width="49.134" height="13.5" x="14.038" y="52.5" rx="4.023"/><text fill="#909090" font-family="-apple-system, BlinkMacSystemFont, Segoe UI, Roboto, Oxygen, Ubuntu, Cantarell, Fira Sans, Droid Sans, Helvetica Neue, sans-serif" font-size="6.436" font-weight="400">
                        <tspan x="28.266" y="62">Fee </tspan>
                        <tspan x="39.695" y="62" font-family="-apple-system, BlinkMacSystemFont, Segoe UI, Roboto, Oxygen, Ubuntu, Cantarell, Fira Sans, Droid Sans, Helvetica Neue, sans-serif" font-weight="bold">5%</tspan>
                    </text><rect fill="#F7F5FF" width="155.425" height="27" x="14.038" y="98.5" rx="8.045"/><text fill="#0F20E9" font-family="-apple-system, BlinkMacSystemFont, Segoe UI, Roboto, Oxygen, Ubuntu, Cantarell, Fira Sans, Droid Sans, Helvetica Neue, sans-serif" font-size="8.581" font-weight="normal">
                        <tspan x="24.567" y="115">Currently raised</tspan>
                    </text><text fill="#0F20E9" font-family="-apple-system, BlinkMacSystemFont, Segoe UI, Roboto, Oxygen, Ubuntu, Cantarell, Fira Sans, Droid Sans, Helvetica Neue, sans-serif" font-size="8.581" font-weight="bold">
                        <tspan x="123.827" y="115">$75,000</tspan>
                    </text><text font-family="-apple-system, BlinkMacSystemFont, Segoe UI, Roboto, Oxygen, Ubuntu, Cantarell, Fira Sans, Droid Sans, Helvetica Neue, sans-serif" font-size="8.581" font-weight="normal">
                        <tspan fill="#202938" x="15.041" y="84.5">Pool cap   </tspan>
                        <tspan fill="#E5E5E5" x="51.009" y="84.5">……………………..…..……..…..</tspan>
                    </text><text fill="#202938" font-family="-apple-system, BlinkMacSystemFont, Segoe UI, Roboto, Oxygen, Ubuntu, Cantarell, Fira Sans, Droid Sans, Helvetica Neue, sans-serif" font-size="8.581" font-weight="normal">
                        <tspan x="132.273" y="84.5">$100,000</tspan>
                    </text></g><g transform="translate(230 255)"><rect fill="#FFF" width="317" height="235" x="0" y="0" stroke="#DDD" rx="10"/><text fill="#081065" font-family="-apple-system, BlinkMacSystemFont, Segoe UI, Roboto, Oxygen, Ubuntu, Cantarell, Fira Sans, Droid Sans, Helvetica Neue, sans-serif" font-size="16" font-weight="bold">
                        <tspan x="22" y="32">New pool</tspan>
                    </text><rect fill="#FFF" width="273" height="167" x="22.5" y="46.5" stroke="#EEE" rx="5.363"/><path d="M139.038 172.5h137v18.955a8.045 8.045 0 0 1-8.045 8.045h-120.91a8.045 8.045 0 0 1-8.045-8.045V172.5Z" fill="#0F20E9"/><text fill="#FFF" font-family="-apple-system, BlinkMacSystemFont, Segoe UI, Roboto, Oxygen, Ubuntu, Cantarell, Fira Sans, Droid Sans, Helvetica Neue, sans-serif" font-size="8.581" font-weight="normal" transform="translate(139.038 172.5)">
                            <tspan x="11.529" y="16.5">Tier 4 (NFT)</tspan>
                        </text><path d="M139.038 116.5h137v27h-137z" fill="#F7F5FF"/><text fill="#6B70A3" font-family="-apple-system, BlinkMacSystemFont, Segoe UI, Roboto, Oxygen, Ubuntu, Cantarell, Fira Sans, Droid Sans, Helvetica Neue, sans-serif" font-size="8.581" font-weight="normal" transform="translate(139.038 116.5)">
                            <tspan x="11.529" y="16.5">Tier 2 (NFT)</tspan>
                        </text><path d="M139.038 144.5h137v27h-137z" fill="#F7F5FF"/><text fill="#6B70A3" font-family="-apple-system, BlinkMacSystemFont, Segoe UI, Roboto, Oxygen, Ubuntu, Cantarell, Fira Sans, Droid Sans, Helvetica Neue, sans-serif" font-size="8.581" font-weight="normal" transform="translate(139.038 144.5)">
                            <tspan x="11.529" y="16.5">Tier 3 (NFT)</tspan>
                        </text><path d="M149.038 60.5h117c5.523 0 10 4.477 10 10v45h-137v-45c0-5.523 4.477-10 10-10Z" fill="#F7F5FF"/><text fill="#6B70A3" font-family="-apple-system, BlinkMacSystemFont, Segoe UI, Roboto, Oxygen, Ubuntu, Cantarell, Fira Sans, Droid Sans, Helvetica Neue, sans-serif" font-size="8.581" font-weight="normal" transform="translate(139.038 60.5)">
                            <tspan x="11.529" y="42.5">Tier 1 (NFT)</tspan>
                        </text><g transform="translate(36.038 60.5)"><rect fill="#FFF" width="95" height="27" x="0" y="0" stroke="#EEE" rx="8.045"/><text fill="#081065" font-family="-apple-system, BlinkMacSystemFont, Segoe UI, Roboto, Oxygen, Ubuntu, Cantarell, Fira Sans, Droid Sans, Helvetica Neue, sans-serif" font-size="8.581" font-weight="normal">
                            <tspan x="11.721" y="16.5">Tier based</tspan>
                        </text><path d="M80.961 17.5c-.255 0-.511-.084-.706-.251l-5-4.286c-.39-.335-.39-.877 0-1.212a1.12 1.12 0 0 1 1.414 0l4.292 3.681 4.294-3.68a1.12 1.12 0 0 1 1.414 0c.39.335.39.877 0 1.212l-5 4.286c-.195.167-.451.25-.708.25Z" fill="#081065" fill-rule="nonzero" stroke="#FFF"/></g><g transform="translate(36 95)"><rect fill="#FFF" width="95" height="22" x="0" y="0" stroke="#EEE" rx="8.045"/><text fill="#081065" font-family="-apple-system, BlinkMacSystemFont, Segoe UI, Roboto, Oxygen, Ubuntu, Cantarell, Fira Sans, Droid Sans, Helvetica Neue, sans-serif" font-size="8.581" font-weight="normal">
                            <tspan x="12" y="14">Fee                         0%</tspan>
                        </text></g><g transform="translate(36 124)"><rect fill="#FFF" width="95" height="22" x="0" y="0" stroke="#EEE" rx="8.045"/><text fill="#081065" font-family="-apple-system, BlinkMacSystemFont, Segoe UI, Roboto, Oxygen, Ubuntu, Cantarell, Fira Sans, Droid Sans, Helvetica Neue, sans-serif" font-size="8.581" font-weight="normal">
                            <tspan x="12" y="14">Min                     $100</tspan>
                        </text></g><g transform="translate(36 153)"><rect fill="#FFF" width="95" height="22" x="0" y="0" stroke="#EEE" rx="8.045"/><text fill="#081065" font-family="-apple-system, BlinkMacSystemFont, Segoe UI, Roboto, Oxygen, Ubuntu, Cantarell, Fira Sans, Droid Sans, Helvetica Neue, sans-serif" font-size="8.581" font-weight="normal">
                            <tspan x="12" y="14">Max                 $1000</tspan>
                        </text></g><g transform="translate(139.038 60.5)"><rect fill="#FFF" width="137" height="27" x="0" y="0" stroke="#EEE" rx="8.045"/><text fill="#081065" font-family="-apple-system, BlinkMacSystemFont, Segoe UI, Roboto, Oxygen, Ubuntu, Cantarell, Fira Sans, Droid Sans, Helvetica Neue, sans-serif" font-size="8.581" font-weight="normal">
                            <tspan x="7.721" y="16.5">Select tier</tspan>
                        </text><path d="M121.961 17.5c-.255 0-.511-.084-.706-.251l-5-4.286c-.39-.335-.39-.877 0-1.212a1.12 1.12 0 0 1 1.414 0l4.292 3.681 4.294-3.68a1.12 1.12 0 0 1 1.414 0c.39.335.39.877 0 1.212l-5 4.286c-.195.167-.451.25-.708.25Z" fill="#081065" fill-rule="nonzero" stroke="#FFF"/></g></g></g></svg>