<svg width="24" height="32" viewBox="0 0 24 32" fill="none" xmlns="http://www.w3.org/2000/svg">
<path d="M16.5898 24.2467V9.79734C16.5898 9.23346 17.1745 8.95153 17.6861 9.16298L21.0478 10.9251C21.2671 11.0661 21.4132 11.2775 21.4132 11.5595V24.2467C21.4132 24.6696 21.1209 24.9515 20.6824 24.9515H17.3207C16.9553 24.9515 16.5898 24.5991 16.5898 24.2467Z" fill="#29A9EB"/>
<path d="M6.94253 24.2467V16.2115C6.94253 15.6476 6.35787 15.3656 5.8463 15.5771L2.48455 17.3392C2.2653 17.4802 2.11914 17.6916 2.11914 17.9736V24.2467C2.11914 24.6696 2.41147 24.9515 2.84996 24.9515H6.21171C6.57712 24.9515 6.94253 24.5991 6.94253 24.2467Z" fill="#29A9EB"/>
<path d="M9.35352 24.2467V0.704872C9.35352 0.140996 9.93817 -0.140943 10.4497 0.0705112L13.8115 1.83263C14.0307 1.97359 14.1769 2.18505 14.1769 2.46699V24.2467C14.1769 24.6696 13.8846 24.9516 13.4461 24.9516H10.0843C9.64584 24.9516 9.35352 24.5991 9.35352 24.2467Z" fill="#29A9EB"/>
<path d="M21.6319 31.6476L23.4589 28.4053C23.7512 27.9119 23.3858 27.348 22.8012 27.348H0.730528C0.145874 27.348 -0.146452 27.9119 0.0727928 28.4053L1.89983 31.6476C2.046 31.859 2.26524 32 2.55757 32H21.0472C21.2665 32 21.5588 31.859 21.6319 31.6476Z" fill="#F9F9F9"/>
</svg>
