<svg width="22" height="22" viewBox="0 0 22 22" fill="none" xmlns="http://www.w3.org/2000/svg">
<path d="M19.666 0.512299L0.99938 11.279C0.0410468 11.8331 0.13688 13.2456 1.15771 13.6665L6.99938 16.0831V20.3331C6.99938 21.5915 8.57438 22.1373 9.36188 21.179L11.891 18.104L17.1577 20.279C17.9535 20.6081 18.8535 20.104 18.9827 19.2498L21.6494 1.87063C21.8202 0.758132 20.6244 -0.0418677 19.666 0.512299ZM8.33271 20.3331V16.6331L10.6035 17.5706L8.33271 20.3331ZM17.666 19.0456L9.07438 15.4956L17.3869 5.67063C17.5869 5.4373 17.266 5.12063 17.0327 5.32063L6.39521 14.3873L1.66605 12.4373L20.3327 1.66647L17.666 19.0456Z" fill="#29A9EB"/>
</svg>
